ffmpeg started on 2025-05-05 at 10:46:58
Report written to "D:\Convert\FFMetrics\reports\ssim_report-6.txt"
Log level: 32
Command line:
ffmpeg -hide_banner -nostdin -i "G:\\\xc0\xed\xe8\xec\xe5\\\xce\xed\xe3\xee\xe8\xed\xe3\xe8\\!_35_\xcb\xe5\xf2\xee_2024\\JamClub-1\\\xcb\xfe\xe4\xe8 \xef\xee\xe4\xe7\xe5\xec\xe5\xeb\xfc\xff\\JamClub_Dungeon_no_Naka_no_Hito_12_1080p_HEVC.mkv" -i "G:\\\xc0\xed\xe8\xec\xe5\\\xce\xed\xe3\xee\xe8\xed\xe3\xe8\\!_35_\xcb\xe5\xf2\xee_2024\\JamClub-1\\\xcb\xfe\xe4\xe8 \xef\xee\xe4\xe7\xe5\xec\xe5\xeb\xfc\xff\\JamClub_Dungeon_no_Naka_no_Hito_12_1080p.mp4" -lavfi "[0:v]settb=AVTB,setpts=PTS-STARTPTS,format=pix_fmts=yuv420p10,fps=24000/1001,scale=1920:1080:flags=bicubic[main];[1:v]settb=AVTB,setpts=PTS-STARTPTS,format=pix_fmts=yuv420p,fps=24000/1001,scale=1920:1080:flags=bicubic[ref];[main][ref]ssim=eof_action=endall:stats_file='D\\:/Convert/FFMetrics/logs/ssim_logfile-6.txt'" -f null -
Input #0, matroska,webm, from 'G:\Аниме\Онгоинги\!_35_Лето_2024\JamClub-1\Люди подземелья\JamClub_Dungeon_no_Naka_no_Hito_12_1080p_HEVC.mkv':
  Metadata:
    COMPATIBLE_BRANDS: isomiso2avc1mp41
    MAJOR_BRAND     : isom
    MINOR_VERSION   : 512
    ENCODER         : Lavf61.7.100
  Duration: 00:24:21.68, start: -0.021000, bitrate: 1124 kb/s
  Stream #0:0: Video: hevc (Main 10), yuv420p10le(tv, bt709, progressive), 1920x1080 [SAR 1:1 DAR 16:9], 23.98 fps, 23.98 tbr, 1k tbn (default)
      Metadata:
        HANDLER_NAME    : VideoHandler
        VENDOR_ID       : [0][0][0][0]
        ENCODER         : Lavc61.19.100 libx265
        BPS             : 926921
        DURATION        : 00:24:21.584708333
        NUMBER_OF_FRAMES: 35043
        NUMBER_OF_BYTES : 169346619
        _STATISTICS_WRITING_APP: mkvpropedit v66.0.0 ('Josie') 64-bit
        _STATISTICS_WRITING_DATE_UTC: 2025-05-04 15:00:36
        _STATISTICS_TAGS: BPS DURATION NUMBER_OF_FRAMES NUMBER_OF_BYTES
  Stream #0:1(eng): Audio: aac (LC), 48000 Hz, stereo, fltp (default)
      Metadata:
        HANDLER_NAME    : SoundHandler
        VENDOR_ID       : [0][0][0][0]
        ENCODER         : Lavc61.19.100 aac
        BPS             : 193859
        DURATION        : 00:24:21.656000000
        NUMBER_OF_FRAMES: 68516
        NUMBER_OF_BYTES : 35419530
        _STATISTICS_WRITING_APP: mkvpropedit v66.0.0 ('Josie') 64-bit
        _STATISTICS_WRITING_DATE_UTC: 2025-05-04 15:00:36
        _STATISTICS_TAGS: BPS DURATION NUMBER_OF_FRAMES NUMBER_OF_BYTES
Input #1, mov,mp4,m4a,3gp,3g2,mj2, from 'G:\Аниме\Онгоинги\!_35_Лето_2024\JamClub-1\Люди подземелья\JamClub_Dungeon_no_Naka_no_Hito_12_1080p.mp4':
  Metadata:
    major_brand     : isom
    minor_version   : 512
    compatible_brands: isomiso2avc1mp41
    encoder         : Lavf60.16.100
  Duration: 00:24:21.66, start: 0.000000, bitrate: 4035 kb/s
  Stream #1:0[0x1](und): Video: h264 (High) (avc1 / 0x31637661), yuv420p(tv, bt709, progressive), 1920x1080 [SAR 1:1 DAR 16:9], 3837 kb/s, 23.98 fps, 23.98 tbr, 90k tbn (default)
      Metadata:
        handler_name    : VideoHandler
        vendor_id       : [0][0][0][0]
  Stream #1:1[0x2](eng): Audio: aac (LC) (mp4a / 0x6134706D), 48000 Hz, stereo, fltp, 191 kb/s (default)
      Metadata:
        handler_name    : SoundHandler
        vendor_id       : [0][0][0][0]
Stream mapping:
  Stream #0:0 (hevc) -> settb:default
  Stream #1:0 (h264) -> settb:default
  ssim:default -> Stream #0:0 (wrapped_avframe)
  Stream #0:1 -> #0:1 (aac (native) -> pcm_s16le (native))
Output #0, null, to 'pipe:':
  Metadata:
    COMPATIBLE_BRANDS: isomiso2avc1mp41
    MAJOR_BRAND     : isom
    MINOR_VERSION   : 512
    encoder         : Lavf61.7.100
  Stream #0:0: Video: wrapped_avframe, yuv420p10le(tv, bt709, progressive), 1920x1080 [SAR 1:1 DAR 16:9], q=2-31, 200 kb/s, 23.98 fps, 23.98 tbn
      Metadata:
        encoder         : Lavc61.19.100 wrapped_avframe
  Stream #0:1(eng): Audio: pcm_s16le, 48000 Hz, stereo, s16, 1536 kb/s (default)
      Metadata:
        HANDLER_NAME    : SoundHandler
        VENDOR_ID       : [0][0][0][0]
        _STATISTICS_TAGS: BPS DURATION NUMBER_OF_FRAMES NUMBER_OF_BYTES
        BPS             : 193859
        DURATION        : 00:24:21.656000000
        NUMBER_OF_FRAMES: 68516
        NUMBER_OF_BYTES : 35419530
        _STATISTICS_WRITING_APP: mkvpropedit v66.0.0 ('Josie') 64-bit
        _STATISTICS_WRITING_DATE_UTC: 2025-05-04 15:00:36
        encoder         : Lavc61.19.100 pcm_s16le
frame=  114 fps=0.0 q=-0.0 size=N/A time=00:00:04.75 bitrate=N/A speed=9.39x    frame=  281 fps=273 q=-0.0 size=N/A time=00:00:11.72 bitrate=N/A speed=11.4x    frame=  479 fps=312 q=-0.0 size=N/A time=00:00:19.97 bitrate=N/A speed=  13x    frame=  736 fps=357 q=-0.0 size=N/A time=00:00:30.69 bitrate=N/A speed=14.9x    frame=  971 fps=378 q=-0.0 size=N/A time=00:00:40.49 bitrate=N/A speed=15.7x    frame= 1234 fps=398 q=-0.0 size=N/A time=00:00:51.46 bitrate=N/A speed=16.6x    frame= 1487 fps=412 q=-0.0 size=N/A time=00:01:02.02 bitrate=N/A speed=17.2x    frame= 1740 fps=422 q=-0.0 size=N/A time=00:01:12.57 bitrate=N/A speed=17.6x    frame= 2020 fps=436 q=-0.0 size=N/A time=00:01:24.25 bitrate=N/A speed=18.2x    frame= 2294 fps=445 q=-0.0 size=N/A time=00:01:35.67 bitrate=N/A speed=18.5x    frame= 2565 fps=452 q=-0.0 size=N/A time=00:01:46.98 bitrate=N/A speed=18.9x    frame= 2827 fps=458 q=-0.0 size=N/A time=00:01:57.90 bitrate=N/A speed=19.1x    frame= 3089 fps=461 q=-0.0 size=N/A time=00:02:08.83 bitrate=N/A speed=19.2x    frame= 3346 fps=463 q=-0.0 size=N/A time=00:02:19.55 bitrate=N/A speed=19.3x    frame= 3571 fps=461 q=-0.0 size=N/A time=00:02:28.94 bitrate=N/A speed=19.2x    frame= 3777 fps=457 q=-0.0 size=N/A time=00:02:37.53 bitrate=N/A speed=19.1x    frame= 3980 fps=454 q=-0.0 size=N/A time=00:02:45.99 bitrate=N/A speed=18.9x    frame= 4204 fps=452 q=-0.0 size=N/A time=00:02:55.34 bitrate=N/A speed=18.9x    frame= 4417 fps=450 q=-0.0 size=N/A time=00:03:04.22 bitrate=N/A speed=18.8x    frame= 4622 fps=448 q=-0.0 size=N/A time=00:03:12.77 bitrate=N/A speed=18.7x    frame= 4786 fps=441 q=-0.0 size=N/A time=00:03:19.61 bitrate=N/A speed=18.4x    frame= 4970 fps=438 q=-0.0 size=N/A time=00:03:27.29 bitrate=N/A speed=18.3x    frame= 5202 fps=438 q=-0.0 size=N/A time=00:03:36.96 bitrate=N/A speed=18.3x    frame= 5448 fps=440 q=-0.0 size=N/A time=00:03:47.22 bitrate=N/A speed=18.3x    frame= 5708 fps=442 q=-0.0 size=N/A time=00:03:58.07 bitrate=N/A speed=18.5x    frame= 5948 fps=443 q=-0.0 size=N/A time=00:04:08.08 bitrate=N/A speed=18.5x    frame= 6141 fps=441 q=-0.0 size=N/A time=00:04:16.13 bitrate=N/A speed=18.4x    frame= 6404 fps=443 q=-0.0 size=N/A time=00:04:27.10 bitrate=N/A speed=18.5x    frame= 6626 fps=443 q=-0.0 size=N/A time=00:04:36.35 bitrate=N/A speed=18.5x    frame= 6833 fps=441 q=-0.0 size=N/A time=00:04:44.99 bitrate=N/A speed=18.4x    frame= 7043 fps=440 q=-0.0 size=N/A time=00:04:53.75 bitrate=N/A speed=18.4x    frame= 7246 fps=439 q=-0.0 size=N/A time=00:05:02.21 bitrate=N/A speed=18.3x    frame= 7501 fps=441 q=-0.0 size=N/A time=00:05:12.85 bitrate=N/A speed=18.4x    frame= 7767 fps=443 q=-0.0 size=N/A time=00:05:23.94 bitrate=N/A speed=18.5x    frame= 8031 fps=445 q=-0.0 size=N/A time=00:05:34.95 bitrate=N/A speed=18.6x    frame= 8294 fps=447 q=-0.0 size=N/A time=00:05:45.92 bitrate=N/A speed=18.6x    frame= 8504 fps=446 q=-0.0 size=N/A time=00:05:54.68 bitrate=N/A speed=18.6x    frame= 8751 fps=446 q=-0.0 size=N/A time=00:06:04.98 bitrate=N/A speed=18.6x    frame= 8987 fps=447 q=-0.0 size=N/A time=00:06:14.83 bitrate=N/A speed=18.6x    frame= 9244 fps=448 q=-0.0 size=N/A time=00:06:25.55 bitrate=N/A speed=18.7x    frame= 9497 fps=449 q=-0.0 size=N/A time=00:06:36.10 bitrate=N/A speed=18.7x    frame= 9756 fps=450 q=-0.0 size=N/A time=00:06:46.90 bitrate=N/A speed=18.8x    frame= 9930 fps=448 q=-0.0 size=N/A time=00:06:54.16 bitrate=N/A speed=18.7x    frame=10105 fps=445 q=-0.0 size=N/A time=00:07:01.46 bitrate=N/A speed=18.6x    frame=10262 fps=442 q=-0.0 size=N/A time=00:07:08.01 bitrate=N/A speed=18.4x    frame=10468 fps=441 q=-0.0 size=N/A time=00:07:16.60 bitrate=N/A speed=18.4x    frame=10702 fps=441 q=-0.0 size=N/A time=00:07:26.36 bitrate=N/A speed=18.4x    frame=10924 fps=441 q=-0.0 size=N/A time=00:07:35.62 bitrate=N/A speed=18.4x    frame=11123 fps=440 q=-0.0 size=N/A time=00:07:43.92 bitrate=N/A speed=18.3x    frame=11349 fps=440 q=-0.0 size=N/A time=00:07:53.34 bitrate=N/A speed=18.4x    frame=11590 fps=440 q=-0.0 size=N/A time=00:08:03.39 bitrate=N/A speed=18.4x    frame=11815 fps=441 q=-0.0 size=N/A time=00:08:12.78 bitrate=N/A speed=18.4x    frame=12091 fps=442 q=-0.0 size=N/A time=00:08:24.29 bitrate=N/A speed=18.4x    frame=12344 fps=443 q=-0.0 size=N/A time=00:08:34.84 bitrate=N/A speed=18.5x    frame=12586 fps=444 q=-0.0 size=N/A time=00:08:44.94 bitrate=N/A speed=18.5x    frame=12840 fps=444 q=-0.0 size=N/A time=00:08:55.53 bitrate=N/A speed=18.5x    frame=13102 fps=445 q=-0.0 size=N/A time=00:09:06.46 bitrate=N/A speed=18.6x    frame=13354 fps=446 q=-0.0 size=N/A time=00:09:16.97 bitrate=N/A speed=18.6x    frame=13601 fps=447 q=-0.0 size=N/A time=00:09:27.27 bitrate=N/A speed=18.6x    frame=13816 fps=446 q=-0.0 size=N/A time=00:09:36.24 bitrate=N/A speed=18.6x    frame=14038 fps=446 q=-0.0 size=N/A time=00:09:45.50 bitrate=N/A speed=18.6x    frame=14286 fps=447 q=-0.0 size=N/A time=00:09:55.84 bitrate=N/A speed=18.6x    frame=14504 fps=446 q=-0.0 size=N/A time=00:10:04.93 bitrate=N/A speed=18.6x    frame=14738 fps=446 q=-0.0 size=N/A time=00:10:14.69 bitrate=N/A speed=18.6x    frame=15014 fps=448 q=-0.0 size=N/A time=00:10:26.20 bitrate=N/A speed=18.7x    frame=15261 fps=448 q=-0.0 size=N/A time=00:10:36.51 bitrate=N/A speed=18.7x    frame=15483 fps=448 q=-0.0 size=N/A time=00:10:45.77 bitrate=N/A speed=18.7x    frame=15732 fps=449 q=-0.0 size=N/A time=00:10:56.15 bitrate=N/A speed=18.7x    frame=15966 fps=449 q=-0.0 size=N/A time=00:11:05.91 bitrate=N/A speed=18.7x    frame=16235 fps=450 q=-0.0 size=N/A time=00:11:17.13 bitrate=N/A speed=18.8x    frame=16502 fps=451 q=-0.0 size=N/A time=00:11:28.27 bitrate=N/A speed=18.8x    frame=16762 fps=451 q=-0.0 size=N/A time=00:11:39.11 bitrate=N/A speed=18.8x    frame=17017 fps=452 q=-0.0 size=N/A time=00:11:49.75 bitrate=N/A speed=18.9x    frame=17291 fps=453 q=-0.0 size=N/A time=00:12:01.17 bitrate=N/A speed=18.9x    frame=17570 fps=454 q=-0.0 size=N/A time=00:12:12.81 bitrate=N/A speed=18.9x    frame=17817 fps=454 q=-0.0 size=N/A time=00:12:23.11 bitrate=N/A speed=  19x    frame=18073 fps=455 q=-0.0 size=N/A time=00:12:33.79 bitrate=N/A speed=  19x    frame=18335 fps=456 q=-0.0 size=N/A time=00:12:44.72 bitrate=N/A speed=  19x    frame=18582 fps=456 q=-0.0 size=N/A time=00:12:55.02 bitrate=N/A speed=  19x    frame=18851 fps=457 q=-0.0 size=N/A time=00:13:06.24 bitrate=N/A speed=19.1x    frame=19069 fps=457 q=-0.0 size=N/A time=00:13:15.33 bitrate=N/A speed=  19x    frame=19318 fps=457 q=-0.0 size=N/A time=00:13:25.72 bitrate=N/A speed=19.1x    frame=19571 fps=457 q=-0.0 size=N/A time=00:13:36.27 bitrate=N/A speed=19.1x    frame=19857 fps=458 q=-0.0 size=N/A time=00:13:48.20 bitrate=N/A speed=19.1x    frame=20118 fps=459 q=-0.0 size=N/A time=00:13:59.08 bitrate=N/A speed=19.1x    frame=20380 fps=459 q=-0.0 size=N/A time=00:14:10.01 bitrate=N/A speed=19.2x    frame=20627 fps=460 q=-0.0 size=N/A time=00:14:20.31 bitrate=N/A speed=19.2x    frame=20886 fps=460 q=-0.0 size=N/A time=00:14:31.12 bitrate=N/A speed=19.2x    frame=21089 fps=459 q=-0.0 size=N/A time=00:14:39.58 bitrate=N/A speed=19.2x    frame=21327 fps=459 q=-0.0 size=N/A time=00:14:49.51 bitrate=N/A speed=19.2x    frame=21565 fps=459 q=-0.0 size=N/A time=00:14:59.44 bitrate=N/A speed=19.2x    frame=21824 fps=460 q=-0.0 size=N/A time=00:15:10.24 bitrate=N/A speed=19.2x    frame=22088 fps=460 q=-0.0 size=N/A time=00:15:21.25 bitrate=N/A speed=19.2x    frame=22345 fps=461 q=-0.0 size=N/A time=00:15:31.97 bitrate=N/A speed=19.2x    frame=22621 fps=462 q=-0.0 size=N/A time=00:15:43.48 bitrate=N/A speed=19.3x    frame=22867 fps=462 q=-0.0 size=N/A time=00:15:53.74 bitrate=N/A speed=19.3x    frame=23137 fps=463 q=-0.0 size=N/A time=00:16:05.00 bitrate=N/A speed=19.3x    frame=23378 fps=462 q=-0.0 size=N/A time=00:16:15.05 bitrate=N/A speed=19.3x    frame=23624 fps=463 q=-0.0 size=N/A time=00:16:25.31 bitrate=N/A speed=19.3x    frame=23890 fps=463 q=-0.0 size=N/A time=00:16:36.41 bitrate=N/A speed=19.3x    frame=24169 fps=464 q=-0.0 size=N/A time=00:16:48.04 bitrate=N/A speed=19.4x    frame=24397 fps=464 q=-0.0 size=N/A time=00:16:57.55 bitrate=N/A speed=19.3x    frame=24661 fps=464 q=-0.0 size=N/A time=00:17:08.56 bitrate=N/A speed=19.4x    frame=24914 fps=464 q=-0.0 size=N/A time=00:17:19.12 bitrate=N/A speed=19.4x    frame=25148 fps=464 q=-0.0 size=N/A time=00:17:28.88 bitrate=N/A speed=19.4x    frame=25336 fps=463 q=-0.0 size=N/A time=00:17:36.72 bitrate=N/A speed=19.3x    frame=25617 fps=464 q=-0.0 size=N/A time=00:17:48.44 bitrate=N/A speed=19.4x    frame=25880 fps=465 q=-0.0 size=N/A time=00:17:59.41 bitrate=N/A speed=19.4x    frame=26076 fps=464 q=-0.0 size=N/A time=00:18:07.58 bitrate=N/A speed=19.3x    frame=26318 fps=464 q=-0.0 size=N/A time=00:18:17.67 bitrate=N/A speed=19.3x    frame=26467 fps=462 q=-0.0 size=N/A time=00:18:23.89 bitrate=N/A speed=19.3x    frame=26708 fps=462 q=-0.0 size=N/A time=00:18:33.94 bitrate=N/A speed=19.3x    frame=26911 fps=462 q=-0.0 size=N/A time=00:18:42.41 bitrate=N/A speed=19.3x    frame=27197 fps=463 q=-0.0 size=N/A time=00:18:54.34 bitrate=N/A speed=19.3x    frame=27465 fps=463 q=-0.0 size=N/A time=00:19:05.51 bitrate=N/A speed=19.3x    frame=27742 fps=464 q=-0.0 size=N/A time=00:19:17.07 bitrate=N/A speed=19.3x    frame=28004 fps=464 q=-0.0 size=N/A time=00:19:28.00 bitrate=N/A speed=19.4x    frame=28218 fps=464 q=-0.0 size=N/A time=00:19:36.92 bitrate=N/A speed=19.3x    frame=28452 fps=464 q=-0.0 size=N/A time=00:19:46.68 bitrate=N/A speed=19.3x    frame=28605 fps=462 q=-0.0 size=N/A time=00:19:53.06 bitrate=N/A speed=19.3x    frame=28872 fps=463 q=-0.0 size=N/A time=00:20:04.20 bitrate=N/A speed=19.3x    frame=29092 fps=462 q=-0.0 size=N/A time=00:20:13.37 bitrate=N/A speed=19.3x    frame=29353 fps=463 q=-0.0 size=N/A time=00:20:24.26 bitrate=N/A speed=19.3x    frame=29628 fps=463 q=-0.0 size=N/A time=00:20:35.73 bitrate=N/A speed=19.3x    frame=29897 fps=464 q=-0.0 size=N/A time=00:20:46.95 bitrate=N/A speed=19.3x    frame=30176 fps=464 q=-0.0 size=N/A time=00:20:58.59 bitrate=N/A speed=19.4x    frame=30412 fps=464 q=-0.0 size=N/A time=00:21:08.43 bitrate=N/A speed=19.4x    frame=30641 fps=464 q=-0.0 size=N/A time=00:21:17.98 bitrate=N/A speed=19.4x    frame=30920 fps=465 q=-0.0 size=N/A time=00:21:29.62 bitrate=N/A speed=19.4x    frame=31162 fps=465 q=-0.0 size=N/A time=00:21:39.71 bitrate=N/A speed=19.4x    frame=31373 fps=464 q=-0.0 size=N/A time=00:21:48.51 bitrate=N/A speed=19.4x    frame=31579 fps=464 q=-0.0 size=N/A time=00:21:57.10 bitrate=N/A speed=19.3x    frame=31838 fps=464 q=-0.0 size=N/A time=00:22:07.90 bitrate=N/A speed=19.4x    frame=32097 fps=464 q=-0.0 size=N/A time=00:22:18.71 bitrate=N/A speed=19.4x    frame=32363 fps=465 q=-0.0 size=N/A time=00:22:29.80 bitrate=N/A speed=19.4x    frame=32618 fps=465 q=-0.0 size=N/A time=00:22:40.44 bitrate=N/A speed=19.4x    frame=32864 fps=465 q=-0.0 size=N/A time=00:22:50.70 bitrate=N/A speed=19.4x    frame=33115 fps=465 q=-0.0 size=N/A time=00:23:01.17 bitrate=N/A speed=19.4x    frame=33359 fps=465 q=-0.0 size=N/A time=00:23:11.34 bitrate=N/A speed=19.4x    frame=33593 fps=465 q=-0.0 size=N/A time=00:23:21.10 bitrate=N/A speed=19.4x    frame=33861 fps=466 q=-0.0 size=N/A time=00:23:32.28 bitrate=N/A speed=19.4x    frame=34124 fps=466 q=-0.0 size=N/A time=00:23:43.25 bitrate=N/A speed=19.4x    frame=34361 fps=466 q=-0.0 size=N/A time=00:23:53.14 bitrate=N/A speed=19.4x    frame=34592 fps=466 q=-0.0 size=N/A time=00:24:02.77 bitrate=N/A speed=19.4x    frame=34834 fps=466 q=-0.0 size=N/A time=00:24:12.86 bitrate=N/A speed=19.4x    [Parsed_ssim_10 @ 000002244bd334c0] SSIM Y:0.995163 (23.154605) U:0.994254 (22.406434) V:0.994379 (22.501869) All:0.994881 (22.908255)
[out#0/null @ 000002243fa10f40] video:15058KiB audio:274064KiB subtitle:0KiB other streams:0KiB global headers:0KiB muxing overhead: unknown
frame=35043 fps=466 q=-0.0 Lsize=N/A time=00:24:21.58 bitrate=N/A speed=19.4x    
